<svg xmlns = "http://www.w3.org/2000/svg" width = "1000" height = "1000">
<g>
<polygon points = "951.491, 563.774 873.598, 517.147 812.553, 541.192 836.428, 625.124 887.726, 633.924 "
fill = "none" stroke = "black"/>
</g>
<g>
<polygon points = "796.953, 218.543 774.027, 213.861 744.735, 275.033 772.173, 376.860 848.056, 359.905 "
fill = "none" stroke = "black"/>
</g>
<g>
<polygon points = "785.232, 835.915 785.498, 837.795 914.963, 876.755 907.987, 785.811 896.271, 736.426 843.713, 769.059 "
fill = "none" stroke = "black"/>
</g>
<g>
<polygon points = "349.741, 419.610 372.933, 303.415 306.279, 212.875 295.222, 363.827 329.896, 423.293 "
fill = "none" stroke = "black"/>
</g>
<g>
<polygon points = "266.822, 484.378 205.558, 532.354 323.368, 624.457 331.001, 608.085 332.739, 512.906 281.535, 484.897 "
fill = "none" stroke = "black"/>
</g>
<g>
<polygon points = "415.943, 507.490 468.019, 588.141 469.403, 589.491 555.808, 539.483 457.801, 450.847 444.016, 448.956 441.784, 450.692 "
fill = "none" stroke = "black"/>
</g>
<g>
<polygon points = "401.731, 697.264 417.549, 692.735 468.964, 591.041 469.403, 589.491 468.019, 588.141 331.001, 608.085 323.368, 624.457 315.531, 653.629 "
fill = "none" stroke = "black"/>
</g>
<g>
<polygon points = "999.340, 271.772 1000.000, 272.040 1000.000, 195.354 955.620, 118.618 861.336, 166.018 "
fill = "none" stroke = "black"/>
</g>
<g>
<polygon points = "730.389, 484.642 772.325, 431.457 768.942, 395.752 681.762, 388.055 631.637, 469.746 637.987, 485.523 "
fill = "none" stroke = "black"/>
</g>
<g>
<polygon points = "49.916, 476.966 22.008, 498.007 106.745, 586.383 162.288, 582.319 181.267, 547.002 109.084, 482.065 "
fill = "none" stroke = "black"/>
</g>
<g>
<polygon points = "0.000, 644.307 0.000, 813.287 28.268, 801.446 96.940, 705.158 87.922, 696.260 34.472, 648.788 "
fill = "none" stroke = "black"/>
</g>
<g>
<polygon points = "143.526, 330.651 214.015, 298.605 223.930, 251.691 219.017, 246.639 60.950, 225.199 54.287, 232.657 "
fill = "none" stroke = "black"/>
</g>
<g>
<polygon points = "162.288, 582.319 106.745, 586.383 34.472, 648.788 87.922, 696.260 203.971, 615.346 "
fill = "none" stroke = "black"/>
</g>
<g>
<polygon points = "283.010, 884.676 257.390, 875.615 190.604, 978.577 219.591, 1000.000 301.281, 1000.000 311.981, 923.249 "
fill = "none" stroke = "black"/>
</g>
<g>
<polygon points = "911.760, 712.971 896.271, 736.426 907.987, 785.811 1000.000, 778.749 1000.000, 639.554 "
fill = "none" stroke = "black"/>
</g>
<g>
<polygon points = "551.615, 133.978 515.890, 197.493 540.135, 261.754 642.853, 241.251 569.211, 118.764 "
fill = "none" stroke = "black"/>
</g>
<g>
<polygon points = "580.891, 777.896 672.307, 735.421 549.274, 677.444 467.039, 715.805 "
fill = "none" stroke = "black"/>
</g>
<g>
<polygon points = "617.395, 554.065 768.488, 548.291 780.016, 544.460 784.252, 541.405 730.389, 484.642 637.987, 485.523 587.316, 529.687 "
fill = "none" stroke = "black"/>
</g>
<g>
<polygon points = "625.815, 0.000 480.991, 0.000 523.661, 58.308 571.676, 111.457 623.643, 65.919 "
fill = "none" stroke = "black"/>
</g>
<g>
<polygon points = "223.697, 345.907 295.222, 363.827 306.279, 212.875 304.903, 209.518 223.930, 251.691 214.015, 298.605 "
fill = "none" stroke = "black"/>
</g>
<g>
<polygon points = "621.231, 328.194 647.343, 243.345 642.853, 241.251 540.135, 261.754 510.162, 301.100 527.437, 358.391 "
fill = "none" stroke = "black"/>
</g>
<g>
<polygon points = "394.168, 204.695 413.991, 135.686 379.276, 93.597 360.523, 76.191 308.905, 125.367 308.073, 202.685 "
fill = "none" stroke = "black"/>
</g>
<g>
<polygon points = "265.130, 658.109 253.513, 693.695 304.321, 757.539 359.022, 752.603 401.731, 697.264 315.531, 653.629 "
fill = "none" stroke = "black"/>
</g>
<g>
<polygon points = "771.985, 0.000 757.394, 45.590 767.270, 197.020 774.027, 213.861 796.953, 218.543 830.111, 193.843 832.544, 190.467 785.139, 0.000 "
fill = "none" stroke = "black"/>
</g>
<g>
<polygon points = "70.188, 193.642 96.689, 163.398 70.100, 0.000 0.000, 0.000 0.000, 18.310 "
fill = "none" stroke = "black"/>
</g>
<g>
<polygon points = "508.560, 845.420 502.279, 843.100 429.251, 867.582 541.624, 950.677 638.304, 939.080 638.281, 938.804 "
fill = "none" stroke = "black"/>
</g>
<g>
<polygon points = "205.558, 532.354 266.822, 484.378 219.325, 426.302 185.455, 437.936 109.084, 482.065 181.267, 547.002 "
fill = "none" stroke = "black"/>
</g>
<g>
<polygon points = "1000.000, 577.175 951.491, 563.774 887.726, 633.924 911.760, 712.971 1000.000, 639.554 "
fill = "none" stroke = "black"/>
</g>
<g>
<polygon points = "105.831, 947.402 50.735, 933.345 0.000, 937.850 0.000, 1000.000 219.591, 1000.000 190.604, 978.577 "
fill = "none" stroke = "black"/>
</g>
<g>
<polygon points = "408.729, 1000.000 412.443, 988.472 386.349, 880.709 353.778, 882.841 311.981, 923.249 301.281, 1000.000 "
fill = "none" stroke = "black"/>
</g>
<g>
<polygon points = "168.468, 37.838 235.658, 110.125 298.905, 117.748 260.388, 0.000 163.724, 0.000 "
fill = "none" stroke = "black"/>
</g>
<g>
<polygon points = "830.111, 193.843 905.900, 304.147 999.340, 271.772 861.336, 166.018 859.966, 165.066 832.544, 190.467 "
fill = "none" stroke = "black"/>
</g>
<g>
<polygon points = "323.368, 624.457 205.558, 532.354 181.267, 547.002 162.288, 582.319 203.971, 615.346 265.130, 658.109 315.531, 653.629 "
fill = "none" stroke = "black"/>
</g>
<g>
<polygon points = "444.016, 448.956 443.810, 339.233 438.326, 331.278 372.933, 303.415 349.741, 419.610 441.784, 450.692 "
fill = "none" stroke = "black"/>
</g>
<g>
<polygon points = "637.987, 485.523 631.637, 469.746 615.964, 458.903 520.154, 439.357 457.801, 450.847 555.808, 539.483 587.316, 529.687 "
fill = "none" stroke = "black"/>
</g>
<g>
<polygon points = "412.443, 988.472 408.729, 1000.000 661.908, 1000.000 638.304, 939.080 541.624, 950.677 "
fill = "none" stroke = "black"/>
</g>
<g>
<polygon points = "523.661, 58.308 480.991, 0.000 395.032, 0.000 360.523, 76.191 379.276, 93.597 "
fill = "none" stroke = "black"/>
</g>
<g>
<polygon points = "1000.000, 459.750 1000.000, 374.000 888.359, 394.106 880.546, 482.915 "
fill = "none" stroke = "black"/>
</g>
<g>
<polygon points = "219.325, 426.302 266.822, 484.378 281.535, 484.897 329.896, 423.293 295.222, 363.827 223.697, 345.907 "
fill = "none" stroke = "black"/>
</g>
<g>
<polygon points = "730.114, 742.890 663.671, 641.500 588.503, 640.437 567.114, 653.581 549.274, 677.444 672.307, 735.421 727.573, 750.854 "
fill = "none" stroke = "black"/>
</g>
<g>
<polygon points = "663.164, 909.987 768.395, 910.739 772.471, 902.786 785.498, 837.795 785.232, 835.915 735.606, 801.491 674.208, 837.911 "
fill = "none" stroke = "black"/>
</g>
<g>
<polygon points = "394.168, 204.695 430.252, 227.717 515.890, 197.493 551.615, 133.978 413.991, 135.686 "
fill = "none" stroke = "black"/>
</g>
<g>
<polygon points = "836.428, 625.124 803.559, 693.243 843.713, 769.059 896.271, 736.426 911.760, 712.971 887.726, 633.924 "
fill = "none" stroke = "black"/>
</g>
<g>
<polygon points = "235.658, 110.125 213.305, 208.913 219.017, 246.639 223.930, 251.691 304.903, 209.518 308.073, 202.685 308.905, 125.367 298.905, 117.748 "
fill = "none" stroke = "black"/>
</g>
<g>
<polygon points = "415.943, 507.490 441.784, 450.692 349.741, 419.610 329.896, 423.293 281.535, 484.897 332.739, 512.906 "
fill = "none" stroke = "black"/>
</g>
<g>
<polygon points = "1000.000, 459.750 880.546, 482.915 880.112, 483.394 873.598, 517.147 951.491, 563.774 1000.000, 577.175 "
fill = "none" stroke = "black"/>
</g>
<g>
<polygon points = "774.027, 213.861 767.270, 197.020 673.145, 148.578 650.781, 243.448 673.861, 262.250 744.735, 275.033 "
fill = "none" stroke = "black"/>
</g>
<g>
<polygon points = "551.615, 133.978 569.211, 118.764 571.676, 111.457 523.661, 58.308 379.276, 93.597 413.991, 135.686 "
fill = "none" stroke = "black"/>
</g>
<g>
<polygon points = "438.326, 331.278 430.252, 227.717 394.168, 204.695 308.073, 202.685 304.903, 209.518 306.279, 212.875 372.933, 303.415 "
fill = "none" stroke = "black"/>
</g>
<g>
<polygon points = "673.145, 148.578 767.270, 197.020 757.394, 45.590 656.492, 95.037 "
fill = "none" stroke = "black"/>
</g>
<g>
<polygon points = "429.251, 867.582 502.279, 843.100 466.620, 715.873 442.069, 706.826 392.535, 877.647 "
fill = "none" stroke = "black"/>
</g>
<g>
<polygon points = "859.966, 165.066 861.336, 166.018 955.620, 118.618 904.473, 0.000 867.369, 0.000 "
fill = "none" stroke = "black"/>
</g>
<g>
<polygon points = "60.950, 225.199 219.017, 246.639 213.305, 208.913 124.888, 133.529 96.689, 163.398 70.188, 193.642 "
fill = "none" stroke = "black"/>
</g>
<g>
<polygon points = "588.503, 640.437 663.671, 641.500 768.488, 548.291 617.395, 554.065 "
fill = "none" stroke = "black"/>
</g>
<g>
<polygon points = "674.208, 837.911 735.606, 801.491 727.573, 750.854 672.307, 735.421 580.891, 777.896 632.393, 827.236 "
fill = "none" stroke = "black"/>
</g>
<g>
<polygon points = "785.232, 835.915 843.713, 769.059 803.559, 693.243 738.352, 731.842 730.114, 742.890 727.573, 750.854 735.606, 801.491 "
fill = "none" stroke = "black"/>
</g>
<g>
<polygon points = "386.349, 880.709 392.535, 877.647 442.069, 706.826 417.549, 692.735 401.731, 697.264 359.022, 752.603 353.778, 882.841 "
fill = "none" stroke = "black"/>
</g>
<g>
<polygon points = "145.370, 749.856 288.954, 794.800 304.321, 757.539 253.513, 693.695 127.412, 720.347 "
fill = "none" stroke = "black"/>
</g>
<g>
<polygon points = "417.549, 692.735 442.069, 706.826 466.620, 715.873 467.039, 715.805 549.274, 677.444 567.114, 653.581 468.964, 591.041 "
fill = "none" stroke = "black"/>
</g>
<g>
<polygon points = "213.305, 208.913 235.658, 110.125 168.468, 37.838 124.888, 133.529 "
fill = "none" stroke = "black"/>
</g>
<g>
<polygon points = "190.604, 978.577 257.390, 875.615 202.978, 840.750 105.831, 947.402 "
fill = "none" stroke = "black"/>
</g>
<g>
<polygon points = "520.154, 439.357 527.437, 358.391 510.162, 301.100 443.810, 339.233 444.016, 448.956 457.801, 450.847 "
fill = "none" stroke = "black"/>
</g>
<g>
<polygon points = "1000.000, 0.000 904.473, 0.000 955.620, 118.618 1000.000, 195.354 "
fill = "none" stroke = "black"/>
</g>
<g>
<polygon points = "730.114, 742.890 738.352, 731.842 780.016, 544.460 768.488, 548.291 663.671, 641.500 "
fill = "none" stroke = "black"/>
</g>
<g>
<polygon points = "812.553, 541.192 784.252, 541.405 780.016, 544.460 738.352, 731.842 803.559, 693.243 836.428, 625.124 "
fill = "none" stroke = "black"/>
</g>
<g>
<polygon points = "353.778, 882.841 359.022, 752.603 304.321, 757.539 288.954, 794.800 283.010, 884.676 311.981, 923.249 "
fill = "none" stroke = "black"/>
</g>
<g>
<polygon points = "632.393, 827.236 580.891, 777.896 467.039, 715.805 466.620, 715.873 502.279, 843.100 508.560, 845.420 "
fill = "none" stroke = "black"/>
</g>
<g>
<polygon points = "185.455, 437.936 102.876, 363.093 62.802, 380.682 49.916, 476.966 109.084, 482.065 "
fill = "none" stroke = "black"/>
</g>
<g>
<polygon points = "143.526, 330.651 54.287, 232.657 9.158, 274.900 62.802, 380.682 102.876, 363.093 "
fill = "none" stroke = "black"/>
</g>
<g>
<polygon points = "143.526, 330.651 102.876, 363.093 185.455, 437.936 219.325, 426.302 223.697, 345.907 214.015, 298.605 "
fill = "none" stroke = "black"/>
</g>
<g>
<polygon points = "70.100, 0.000 96.689, 163.398 124.888, 133.529 168.468, 37.838 163.724, 0.000 "
fill = "none" stroke = "black"/>
</g>
<g>
<polygon points = "0.000, 499.671 0.000, 644.307 34.472, 648.788 106.745, 586.383 22.008, 498.007 "
fill = "none" stroke = "black"/>
</g>
<g>
<polygon points = "145.370, 749.856 165.938, 811.610 202.978, 840.750 257.390, 875.615 283.010, 884.676 288.954, 794.800 "
fill = "none" stroke = "black"/>
</g>
<g>
<polygon points = "882.462, 386.299 848.056, 359.905 772.173, 376.860 768.942, 395.752 772.325, 431.457 880.112, 483.394 880.546, 482.915 888.359, 394.106 "
fill = "none" stroke = "black"/>
</g>
<g>
<polygon points = "623.643, 65.919 656.492, 95.037 757.394, 45.590 771.985, 0.000 625.815, 0.000 "
fill = "none" stroke = "black"/>
</g>
<g>
<polygon points = "772.173, 376.860 744.735, 275.033 673.861, 262.250 681.762, 388.055 768.942, 395.752 "
fill = "none" stroke = "black"/>
</g>
<g>
<polygon points = "165.938, 811.610 106.844, 831.582 50.735, 933.345 105.831, 947.402 202.978, 840.750 "
fill = "none" stroke = "black"/>
</g>
<g>
<polygon points = "392.535, 877.647 386.349, 880.709 412.443, 988.472 541.624, 950.677 429.251, 867.582 "
fill = "none" stroke = "black"/>
</g>
<g>
<polygon points = "127.412, 720.347 96.940, 705.158 28.268, 801.446 106.844, 831.582 165.938, 811.610 145.370, 749.856 "
fill = "none" stroke = "black"/>
</g>
<g>
<polygon points = "430.252, 227.717 438.326, 331.278 443.810, 339.233 510.162, 301.100 540.135, 261.754 515.890, 197.493 "
fill = "none" stroke = "black"/>
</g>
<g>
<polygon points = "647.343, 243.345 621.231, 328.194 615.964, 458.903 631.637, 469.746 681.762, 388.055 673.861, 262.250 650.781, 243.448 "
fill = "none" stroke = "black"/>
</g>
<g>
<polygon points = "28.268, 801.446 0.000, 813.287 0.000, 937.850 50.735, 933.345 106.844, 831.582 "
fill = "none" stroke = "black"/>
</g>
<g>
<polygon points = "1000.000, 898.204 1000.000, 778.749 907.987, 785.811 914.963, 876.755 929.599, 897.176 "
fill = "none" stroke = "black"/>
</g>
<g>
<polygon points = "929.599, 897.176 914.963, 876.755 785.498, 837.795 772.471, 902.786 895.997, 947.920 "
fill = "none" stroke = "black"/>
</g>
<g>
<polygon points = "929.599, 897.176 895.997, 947.920 888.520, 1000.000 1000.000, 1000.000 1000.000, 898.204 "
fill = "none" stroke = "black"/>
</g>
<g>
<polygon points = "895.997, 947.920 772.471, 902.786 768.395, 910.739 755.084, 1000.000 888.520, 1000.000 "
fill = "none" stroke = "black"/>
</g>
<g>
<polygon points = "0.000, 276.534 9.158, 274.900 54.287, 232.657 60.950, 225.199 70.188, 193.642 0.000, 18.310 "
fill = "none" stroke = "black"/>
</g>
<g>
<polygon points = "632.393, 827.236 508.560, 845.420 638.281, 938.804 663.164, 909.987 674.208, 837.911 "
fill = "none" stroke = "black"/>
</g>
<g>
<polygon points = "87.922, 696.260 96.940, 705.158 127.412, 720.347 253.513, 693.695 265.130, 658.109 203.971, 615.346 "
fill = "none" stroke = "black"/>
</g>
<g>
<polygon points = "999.340, 271.772 905.900, 304.147 882.462, 386.299 888.359, 394.106 1000.000, 374.000 1000.000, 272.040 "
fill = "none" stroke = "black"/>
</g>
<g>
<polygon points = "468.019, 588.141 415.943, 507.490 332.739, 512.906 331.001, 608.085 "
fill = "none" stroke = "black"/>
</g>
<g>
<polygon points = "588.503, 640.437 617.395, 554.065 587.316, 529.687 555.808, 539.483 469.403, 589.491 468.964, 591.041 567.114, 653.581 "
fill = "none" stroke = "black"/>
</g>
<g>
<polygon points = "663.164, 909.987 638.281, 938.804 638.304, 939.080 661.908, 1000.000 755.084, 1000.000 768.395, 910.739 "
fill = "none" stroke = "black"/>
</g>
<g>
<polygon points = "527.437, 358.391 520.154, 439.357 615.964, 458.903 621.231, 328.194 "
fill = "none" stroke = "black"/>
</g>
<g>
<polygon points = "308.905, 125.367 360.523, 76.191 395.032, 0.000 260.388, 0.000 298.905, 117.748 "
fill = "none" stroke = "black"/>
</g>
<g>
<polygon points = "571.676, 111.457 569.211, 118.764 642.853, 241.251 647.343, 243.345 650.781, 243.448 673.145, 148.578 656.492, 95.037 623.643, 65.919 "
fill = "none" stroke = "black"/>
</g>
<g>
<polygon points = "730.389, 484.642 784.252, 541.405 812.553, 541.192 873.598, 517.147 880.112, 483.394 772.325, 431.457 "
fill = "none" stroke = "black"/>
</g>
<g>
<polygon points = "62.802, 380.682 9.158, 274.900 0.000, 276.534 0.000, 499.671 22.008, 498.007 49.916, 476.966 "
fill = "none" stroke = "black"/>
</g>
<g>
<polygon points = "859.966, 165.066 867.369, 0.000 785.139, 0.000 832.544, 190.467 "
fill = "none" stroke = "black"/>
</g>
<g>
<polygon points = "882.462, 386.299 905.900, 304.147 830.111, 193.843 796.953, 218.543 848.056, 359.905 "
fill = "none" stroke = "black"/>
</g>
<g>
<circle cx = "840.188" cy = "605.617" r = "3" />
<circle cx = "783.099" cy = "201.560" r = "3" />
<circle cx = "911.647" cy = "802.449" r = "3" />
<circle cx = "335.223" cy = "231.770" r = "3" />
<circle cx = "277.775" cy = "446.030" r = "3" />
<circle cx = "477.397" cy = "371.129" r = "3" />
<circle cx = "364.784" cy = "486.599" r = "3" />
<circle cx = "952.230" cy = "83.805" r = "3" />
<circle cx = "635.712" cy = "282.703" r = "3" />
<circle cx = "141.603" cy = "393.031" r = "3" />
<circle cx = "16.301" cy = "757.113" r = "3" />
<circle cx = "137.232" cy = "195.823" r = "3" />
<circle cx = "156.679" cy = "599.056" r = "3" />
<circle cx = "129.790" cy = "891.191" r = "3" />
<circle cx = "998.925" cy = "781.743" r = "3" />
<circle cx = "512.932" cy = "160.888" r = "3" />
<circle cx = "612.640" cy = "703.968" r = "3" />
<circle cx = "637.552" cy = "475.713" r = "3" />
<circle cx = "493.583" cy = "27.225" r = "3" />
<circle cx = "292.517" cy = "228.642" r = "3" />
<circle cx = "526.745" cy = "230.086" r = "3" />
<circle cx = "400.229" cy = "108.471" r = "3" />
<circle cx = "283.315" cy = "647.542" r = "3" />
<circle cx = "807.725" cy = "80.974" r = "3" />
<circle cx = "69.755" cy = "50.673" r = "3" />
<circle cx = "525.995" cy = "913.944" r = "3" />
<circle cx = "192.214" cy = "336.773" r = "3" />
<circle cx = "890.233" cy = "651.107" r = "3" />
<circle cx = "64.171" cy = "979.977" r = "3" />
<circle cx = "457.702" cy = "936.904" r = "3" />
<circle cx = "238.280" cy = "29.366" r = "3" />
<circle cx = "902.208" cy = "149.080" r = "3" />
<circle cx = "266.666" cy = "460.240" r = "3" />
<circle cx = "375.207" cy = "239.751" r = "3" />
<circle cx = "512.535" cy = "332.276" r = "3" />
<circle cx = "531.606" cy = "960.720" r = "3" />
<circle cx = "437.638" cy = "68.165" r = "3" />
<circle cx = "930.810" cy = "279.048" r = "3" />
<circle cx = "284.293" cy = "261.466" r = "3" />
<circle cx = "639.979" cy = "645.951" r = "3" />
<circle cx = "687.861" cy = "834.026" r = "3" />
<circle cx = "440.105" cy = "119.925" r = "3" />
<circle cx = "829.201" cy = "669.663" r = "3" />
<circle cx = "228.968" cy = "106.628" r = "3" />
<circle cx = "350.360" cy = "313.330" r = "3" />
<circle cx = "956.468" cy = "411.360" r = "3" />
<circle cx = "657.304" cy = "141.324" r = "3" />
<circle cx = "439.560" cy = "76.030" r = "3" />
<circle cx = "398.437" cy = "185.233" r = "3" />
<circle cx = "684.219" cy = "89.028" r = "3" />
<circle cx = "482.491" cy = "784.175" r = "3" />
<circle cx = "950.252" cy = "79.872" r = "3" />
<circle cx = "147.660" cy = "118.938" r = "3" />
<circle cx = "641.081" cy = "568.047" r = "3" />
<circle cx = "619.596" cy = "718.941" r = "3" />
<circle cx = "786.002" cy = "692.542" r = "3" />
<circle cx = "447.034" cy = "773.893" r = "3" />
<circle cx = "187.533" cy = "723.765" r = "3" />
<circle cx = "556.444" cy = "583.499" r = "3" />
<circle cx = "169.607" cy = "93.196" r = "3" />
<circle cx = "103.171" cy = "873.925" r = "3" />
<circle cx = "495.444" cy = "239.525" r = "3" />
<circle cx = "984.752" cy = "64.996" r = "3" />
<circle cx = "684.445" cy = "616.812" r = "3" />
<circle cx = "749.771" cy = "631.336" r = "3" />
<circle cx = "294.160" cy = "767.738" r = "3" />
<circle cx = "584.489" cy = "755.587" r = "3" />
<circle cx = "152.390" cy = "267.851" r = "3" />
<circle cx = "125.475" cy = "206.530" r = "3" />
<circle cx = "164.102" cy = "254.929" r = "3" />
<circle cx = "74.530" cy = "49.896" r = "3" />
<circle cx = "52.529" cy = "478.437" r = "3" />
<circle cx = "176.211" cy = "759.938" r = "3" />
<circle cx = "797.798" cy = "267.346" r = "3" />
<circle cx = "656.564" cy = "32.595" r = "3" />
<circle cx = "639.458" cy = "240.265" r = "3" />
<circle cx = "93.480" cy = "865.098" r = "3" />
<circle cx = "520.210" cy = "921.768" r = "3" />
<circle cx = "69.906" cy = "795.345" r = "3" />
<circle cx = "461.420" cy = "180.323" r = "3" />
<circle cx = "573.319" cy = "244.419" r = "3" />
<circle cx = "51.939" cy = "842.193" r = "3" />
<circle cx = "999.994" cy = "795.671" r = "3" />
<circle cx = "889.956" cy = "874.532" r = "3" />
<circle cx = "997.799" cy = "945.942" r = "3" />
<circle cx = "870.540" cy = "927.671" r = "3" />
<circle cx = "4.162" cy = "76.931" r = "3" />
<circle cx = "593.892" cy = "819.628" r = "3" />
<circle cx = "163.131" cy = "608.310" r = "3" />
<circle cx = "913.027" cy = "180.305" r = "3" />
<circle cx = "359.095" cy = "447.515" r = "3" />
<circle cx = "579.430" cy = "547.424" r = "3" />
<circle cx = "687.387" cy = "900.360" r = "3" />
<circle cx = "530.808" cy = "242.706" r = "3" />
<circle cx = "304.295" cy = "7.772" r = "3" />
<circle cx = "576.971" cy = "122.386" r = "3" />
<circle cx = "747.809" cy = "371.090" r = "3" />
<circle cx = "35.421" cy = "252.197" r = "3" />
<circle cx = "833.239" cy = "74.623" r = "3" />
<circle cx = "873.271" cy = "168.962" r = "3" />
</g>
</svg>
