<svg xmlns = "http://www.w3.org/2000/svg" width = "1000" height = "1000">
<g>
<polygon points = "947.447, 537.891 797.998, 448.432 726.745, 559.578 739.171, 621.253 853.798, 640.917 "
fill = "none" stroke = "black"/>
</g>
<g>
<polygon points = "732.042, 146.715 697.076, 219.736 783.895, 377.434 785.876, 375.798 864.744, 225.456 830.837, 148.501 749.023, 131.794 "
fill = "none" stroke = "black"/>
</g>
<g>
<polygon points = "1000.000, 980.573 938.528, 721.459 880.770, 729.632 794.785, 783.020 825.402, 1000.000 1000.000, 1000.000 "
fill = "none" stroke = "black"/>
</g>
<g>
<polygon points = "312.343, 251.051 326.628, 275.550 348.067, 271.571 361.973, 201.904 320.108, 145.038 "
fill = "none" stroke = "black"/>
</g>
<g>
<polygon points = "276.325, 359.035 214.342, 407.575 214.249, 407.813 312.677, 484.764 352.000, 400.429 "
fill = "none" stroke = "black"/>
</g>
<g>
<polygon points = "388.793, 397.366 502.240, 508.005 563.709, 413.874 435.716, 298.117 432.980, 300.245 "
fill = "none" stroke = "black"/>
</g>
<g>
<polygon points = "294.574, 552.150 455.222, 633.470 479.505, 605.782 504.425, 562.747 502.240, 508.005 388.793, 397.366 352.000, 400.429 312.677, 484.764 "
fill = "none" stroke = "black"/>
</g>
<g>
<polygon points = "1000.000, 0.000 881.591, 0.000 880.019, 80.272 1000.000, 172.216 "
fill = "none" stroke = "black"/>
</g>
<g>
<polygon points = "697.076, 219.736 605.670, 205.776 566.138, 287.647 603.116, 379.528 783.747, 377.805 783.895, 377.434 "
fill = "none" stroke = "black"/>
</g>
<g>
<polygon points = "89.793, 295.527 0.000, 297.517 0.000, 506.957 167.559, 494.696 214.249, 407.813 214.342, 407.575 "
fill = "none" stroke = "black"/>
</g>
<g>
<polygon points = "13.922, 874.197 164.138, 747.047 0.000, 601.269 0.000, 877.188 "
fill = "none" stroke = "black"/>
</g>
<g>
<polygon points = "200.118, 252.491 211.984, 225.908 219.792, 188.963 139.584, 106.470 0.000, 171.359 0.000, 297.517 89.793, 295.527 "
fill = "none" stroke = "black"/>
</g>
<g>
<polygon points = "0.000, 601.269 164.138, 747.047 172.328, 747.801 245.570, 556.506 167.559, 494.696 0.000, 506.957 "
fill = "none" stroke = "black"/>
</g>
<g>
<polygon points = "184.139, 1000.000 281.764, 1000.000 305.246, 831.554 172.328, 747.801 164.138, 747.047 13.922, 874.197 "
fill = "none" stroke = "black"/>
</g>
<g>
<polygon points = "1000.000, 980.573 1000.000, 670.313 938.528, 721.459 "
fill = "none" stroke = "black"/>
</g>
<g>
<polygon points = "456.361, 176.243 462.871, 206.858 589.255, 181.631 575.961, 83.532 504.712, 93.846 500.809, 97.221 "
fill = "none" stroke = "black"/>
</g>
<g>
<polygon points = "726.915, 724.657 726.523, 722.183 479.505, 605.782 455.222, 633.470 434.674, 753.397 576.230, 811.809 "
fill = "none" stroke = "black"/>
</g>
<g>
<polygon points = "563.709, 413.874 502.240, 508.005 504.425, 562.747 726.745, 559.578 797.998, 448.432 783.747, 377.805 603.116, 379.528 "
fill = "none" stroke = "black"/>
</g>
<g>
<polygon points = "504.712, 93.846 575.961, 83.532 584.756, 70.912 607.745, 0.000 430.708, 0.000 476.660, 62.795 "
fill = "none" stroke = "black"/>
</g>
<g>
<polygon points = "211.984, 225.908 312.343, 251.051 320.108, 145.038 320.094, 145.002 314.252, 139.766 219.792, 188.963 "
fill = "none" stroke = "black"/>
</g>
<g>
<polygon points = "589.255, 181.631 462.871, 206.858 451.298, 239.965 453.339, 271.962 566.138, 287.647 605.670, 205.776 "
fill = "none" stroke = "black"/>
</g>
<g>
<polygon points = "424.772, 98.164 409.199, 79.283 343.828, 18.610 314.919, 77.795 314.252, 139.766 320.094, 145.002 410.710, 147.117 "
fill = "none" stroke = "black"/>
</g>
<g>
<polygon points = "455.222, 633.470 294.574, 552.150 245.570, 556.506 172.328, 747.801 305.246, 831.554 434.169, 753.857 434.674, 753.397 "
fill = "none" stroke = "black"/>
</g>
<g>
<polygon points = "749.023, 131.794 830.837, 148.501 880.019, 80.272 881.591, 0.000 740.428, 0.000 "
fill = "none" stroke = "black"/>
</g>
<g>
<polygon points = "0.000, 171.359 139.584, 106.470 156.378, 58.687 148.958, 0.000 0.000, 0.000 "
fill = "none" stroke = "black"/>
</g>
<g>
<polygon points = "497.129, 941.131 632.087, 924.942 576.230, 811.809 434.674, 753.397 434.169, 753.857 "
fill = "none" stroke = "black"/>
</g>
<g>
<polygon points = "214.342, 407.575 276.325, 359.035 273.905, 342.711 200.118, 252.491 89.793, 295.527 "
fill = "none" stroke = "black"/>
</g>
<g>
<polygon points = "947.447, 537.891 853.798, 640.917 880.770, 729.632 938.528, 721.459 1000.000, 670.313 1000.000, 552.410 "
fill = "none" stroke = "black"/>
</g>
<g>
<polygon points = "184.139, 1000.000 13.922, 874.197 0.000, 877.188 0.000, 1000.000 "
fill = "none" stroke = "black"/>
</g>
<g>
<polygon points = "434.169, 753.857 305.246, 831.554 281.764, 1000.000 478.159, 1000.000 497.129, 941.131 "
fill = "none" stroke = "black"/>
</g>
<g>
<polygon points = "343.828, 18.610 347.450, 0.000 148.958, 0.000 156.378, 58.687 314.919, 77.795 "
fill = "none" stroke = "black"/>
</g>
<g>
<polygon points = "1000.000, 195.690 1000.000, 172.216 880.019, 80.272 830.837, 148.501 864.744, 225.456 "
fill = "none" stroke = "black"/>
</g>
<g>
<polygon points = "294.574, 552.150 312.677, 484.764 214.249, 407.813 167.559, 494.696 245.570, 556.506 "
fill = "none" stroke = "black"/>
</g>
<g>
<polygon points = "348.067, 271.571 432.980, 300.245 435.716, 298.117 453.339, 271.962 451.298, 239.965 361.973, 201.904 "
fill = "none" stroke = "black"/>
</g>
<g>
<polygon points = "603.116, 379.528 566.138, 287.647 453.339, 271.962 435.716, 298.117 563.709, 413.874 "
fill = "none" stroke = "black"/>
</g>
<g>
<polygon points = "632.087, 924.942 497.129, 941.131 478.159, 1000.000 692.946, 1000.000 "
fill = "none" stroke = "black"/>
</g>
<g>
<polygon points = "430.708, 0.000 347.450, 0.000 343.828, 18.610 409.199, 79.283 476.660, 62.795 "
fill = "none" stroke = "black"/>
</g>
<g>
<polygon points = "1000.000, 334.274 1000.000, 195.690 864.744, 225.456 785.876, 375.798 "
fill = "none" stroke = "black"/>
</g>
<g>
<polygon points = "326.628, 275.550 312.343, 251.051 211.984, 225.908 200.118, 252.491 273.905, 342.711 "
fill = "none" stroke = "black"/>
</g>
<g>
<polygon points = "504.425, 562.747 479.505, 605.782 726.523, 722.183 739.171, 621.253 726.745, 559.578 "
fill = "none" stroke = "black"/>
</g>
<g>
<polygon points = "576.230, 811.809 632.087, 924.942 692.946, 1000.000 825.402, 1000.000 794.785, 783.020 726.915, 724.657 "
fill = "none" stroke = "black"/>
</g>
<g>
<polygon points = "456.361, 176.243 500.809, 97.221 424.772, 98.164 410.710, 147.117 "
fill = "none" stroke = "black"/>
</g>
<g>
<polygon points = "726.523, 722.183 726.915, 724.657 794.785, 783.020 880.770, 729.632 853.798, 640.917 739.171, 621.253 "
fill = "none" stroke = "black"/>
</g>
<g>
<polygon points = "219.792, 188.963 314.252, 139.766 314.919, 77.795 156.378, 58.687 139.584, 106.470 "
fill = "none" stroke = "black"/>
</g>
<g>
<polygon points = "388.793, 397.366 432.980, 300.245 348.067, 271.571 326.628, 275.550 273.905, 342.711 276.325, 359.035 352.000, 400.429 "
fill = "none" stroke = "black"/>
</g>
<g>
<polygon points = "797.998, 448.432 947.447, 537.891 1000.000, 552.410 1000.000, 334.274 785.876, 375.798 783.895, 377.434 783.747, 377.805 "
fill = "none" stroke = "black"/>
</g>
<g>
<polygon points = "584.756, 70.912 575.961, 83.532 589.255, 181.631 605.670, 205.776 697.076, 219.736 732.042, 146.715 "
fill = "none" stroke = "black"/>
</g>
<g>
<polygon points = "504.712, 93.846 476.660, 62.795 409.199, 79.283 424.772, 98.164 500.809, 97.221 "
fill = "none" stroke = "black"/>
</g>
<g>
<polygon points = "456.361, 176.243 410.710, 147.117 320.094, 145.002 320.108, 145.038 361.973, 201.904 451.298, 239.965 462.871, 206.858 "
fill = "none" stroke = "black"/>
</g>
<g>
<polygon points = "740.428, 0.000 607.745, 0.000 584.756, 70.912 732.042, 146.715 749.023, 131.794 "
fill = "none" stroke = "black"/>
</g>
<g>
<circle cx = "840.188" cy = "605.617" r = "3" />
<circle cx = "783.099" cy = "201.560" r = "3" />
<circle cx = "911.647" cy = "802.449" r = "3" />
<circle cx = "335.223" cy = "231.770" r = "3" />
<circle cx = "277.775" cy = "446.030" r = "3" />
<circle cx = "477.397" cy = "371.129" r = "3" />
<circle cx = "364.784" cy = "486.599" r = "3" />
<circle cx = "952.230" cy = "83.805" r = "3" />
<circle cx = "635.712" cy = "282.703" r = "3" />
<circle cx = "141.603" cy = "393.031" r = "3" />
<circle cx = "16.301" cy = "757.113" r = "3" />
<circle cx = "137.232" cy = "195.823" r = "3" />
<circle cx = "156.679" cy = "599.056" r = "3" />
<circle cx = "129.790" cy = "891.191" r = "3" />
<circle cx = "998.925" cy = "781.743" r = "3" />
<circle cx = "512.932" cy = "160.888" r = "3" />
<circle cx = "612.640" cy = "703.968" r = "3" />
<circle cx = "637.552" cy = "475.713" r = "3" />
<circle cx = "493.583" cy = "27.225" r = "3" />
<circle cx = "292.517" cy = "228.642" r = "3" />
<circle cx = "526.745" cy = "230.086" r = "3" />
<circle cx = "400.229" cy = "108.471" r = "3" />
<circle cx = "283.315" cy = "647.542" r = "3" />
<circle cx = "807.725" cy = "80.974" r = "3" />
<circle cx = "69.755" cy = "50.673" r = "3" />
<circle cx = "525.995" cy = "913.944" r = "3" />
<circle cx = "192.214" cy = "336.773" r = "3" />
<circle cx = "890.233" cy = "651.107" r = "3" />
<circle cx = "64.171" cy = "979.977" r = "3" />
<circle cx = "457.702" cy = "936.904" r = "3" />
<circle cx = "238.280" cy = "29.366" r = "3" />
<circle cx = "902.208" cy = "149.080" r = "3" />
<circle cx = "266.666" cy = "460.240" r = "3" />
<circle cx = "375.207" cy = "239.751" r = "3" />
<circle cx = "512.535" cy = "332.276" r = "3" />
<circle cx = "531.606" cy = "960.720" r = "3" />
<circle cx = "437.638" cy = "68.165" r = "3" />
<circle cx = "930.810" cy = "279.048" r = "3" />
<circle cx = "284.293" cy = "261.466" r = "3" />
<circle cx = "639.979" cy = "645.951" r = "3" />
<circle cx = "687.861" cy = "834.026" r = "3" />
<circle cx = "440.105" cy = "119.925" r = "3" />
<circle cx = "829.201" cy = "669.663" r = "3" />
<circle cx = "228.968" cy = "106.628" r = "3" />
<circle cx = "350.360" cy = "313.330" r = "3" />
<circle cx = "956.468" cy = "411.360" r = "3" />
<circle cx = "657.304" cy = "141.324" r = "3" />
<circle cx = "439.560" cy = "76.030" r = "3" />
<circle cx = "398.437" cy = "185.233" r = "3" />
<circle cx = "684.219" cy = "89.028" r = "3" />
</g>
</svg>
