<svg xmlns = "http://www.w3.org/2000/svg" width = "1000" height = "1000">
<g>
<polygon points = "762.403, 503.956 798.673, 631.461 853.798, 640.917 947.447, 537.891 836.635, 471.559 765.111, 499.732 "
fill = "none" stroke = "black"/>
</g>
<g>
<polygon points = "813.626, 144.986 749.023, 131.794 732.042, 146.715 705.962, 201.180 719.216, 250.369 841.819, 222.975 "
fill = "none" stroke = "black"/>
</g>
<g>
<polygon points = "938.528, 721.459 880.770, 729.632 845.050, 751.810 797.975, 805.627 798.258, 807.632 960.217, 856.370 955.286, 792.098 "
fill = "none" stroke = "black"/>
</g>
<g>
<polygon points = "312.343, 251.051 326.628, 275.550 348.067, 271.571 361.973, 201.904 320.108, 145.038 "
fill = "none" stroke = "black"/>
</g>
<g>
<polygon points = "317.948, 473.461 319.605, 382.709 276.325, 359.035 214.342, 407.575 214.249, 407.813 312.677, 484.764 "
fill = "none" stroke = "black"/>
</g>
<g>
<polygon points = "436.051, 298.420 435.436, 298.335 432.980, 300.245 397.777, 377.620 447.485, 454.605 480.631, 486.931 537.491, 454.023 563.709, 413.874 "
fill = "none" stroke = "black"/>
</g>
<g>
<polygon points = "480.631, 486.931 447.485, 454.605 317.948, 473.461 312.677, 484.764 294.574, 552.150 419.895, 615.588 475.134, 506.329 "
fill = "none" stroke = "black"/>
</g>
<g>
<polygon points = "964.475, 144.993 1000.000, 159.425 1000.000, 128.882 967.938, 73.444 909.468, 102.839 "
fill = "none" stroke = "black"/>
</g>
<g>
<polygon points = "718.461, 293.033 716.129, 268.418 607.423, 258.821 575.485, 310.873 603.116, 379.528 650.619, 379.075 "
fill = "none" stroke = "black"/>
</g>
<g>
<polygon points = "167.559, 494.696 214.249, 407.813 214.342, 407.575 126.654, 328.688 85.194, 325.116 30.524, 366.334 154.515, 495.650 "
fill = "none" stroke = "black"/>
</g>
<g>
<polygon points = "71.848, 665.080 15.871, 615.364 0.000, 613.301 0.000, 813.945 23.108, 804.266 94.777, 703.776 90.902, 683.882 "
fill = "none" stroke = "black"/>
</g>
<g>
<polygon points = "196.170, 164.667 84.286, 149.492 152.593, 224.500 218.626, 194.480 219.792, 188.963 "
fill = "none" stroke = "black"/>
</g>
<g>
<polygon points = "167.559, 494.696 154.515, 495.650 15.871, 615.364 71.848, 665.080 237.143, 549.829 "
fill = "none" stroke = "black"/>
</g>
<g>
<polygon points = "281.764, 1000.000 290.890, 934.535 229.318, 852.555 153.366, 825.694 86.912, 928.143 184.139, 1000.000 "
fill = "none" stroke = "black"/>
</g>
<g>
<polygon points = "1000.000, 788.666 1000.000, 670.313 938.528, 721.459 955.286, 792.098 "
fill = "none" stroke = "black"/>
</g>
<g>
<polygon points = "515.297, 92.313 504.712, 93.846 500.809, 97.221 476.078, 141.189 497.809, 198.788 500.408, 199.366 565.703, 186.332 569.969, 183.248 "
fill = "none" stroke = "black"/>
</g>
<g>
<polygon points = "660.245, 690.951 572.230, 649.477 507.793, 679.535 508.480, 680.649 588.498, 724.288 "
fill = "none" stroke = "black"/>
</g>
<g>
<polygon points = "537.491, 454.023 622.028, 522.540 743.043, 517.916 762.403, 503.956 765.111, 499.732 650.619, 379.075 603.116, 379.528 563.709, 413.874 "
fill = "none" stroke = "black"/>
</g>
<g>
<polygon points = "504.712, 93.846 515.297, 92.313 574.733, 40.231 576.059, 0.000 430.708, 0.000 476.660, 62.795 "
fill = "none" stroke = "black"/>
</g>
<g>
<polygon points = "320.108, 145.038 320.094, 145.002 314.252, 139.766 219.792, 188.963 218.626, 194.480 225.766, 229.361 312.343, 251.051 "
fill = "none" stroke = "black"/>
</g>
<g>
<polygon points = "552.662, 228.706 565.703, 186.332 500.408, 199.366 513.096, 241.444 "
fill = "none" stroke = "black"/>
</g>
<g>
<polygon points = "409.199, 79.283 369.107, 42.073 314.746, 93.862 314.252, 139.766 320.094, 145.002 410.710, 147.117 424.772, 98.164 "
fill = "none" stroke = "black"/>
</g>
<g>
<polygon points = "246.566, 556.417 213.409, 657.990 255.321, 710.655 373.448, 699.996 424.252, 634.168 419.895, 615.588 294.574, 552.150 "
fill = "none" stroke = "black"/>
</g>
<g>
<polygon points = "749.023, 131.794 813.626, 144.986 833.516, 130.169 801.119, 0.000 750.318, 0.000 742.102, 25.670 "
fill = "none" stroke = "black"/>
</g>
<g>
<polygon points = "65.229, 134.424 82.607, 114.592 63.960, 0.000 11.418, 0.000 "
fill = "none" stroke = "black"/>
</g>
<g>
<polygon points = "546.560, 935.202 608.428, 927.780 606.090, 900.006 525.446, 841.951 470.031, 860.529 478.122, 884.595 "
fill = "none" stroke = "black"/>
</g>
<g>
<polygon points = "214.342, 407.575 276.325, 359.035 273.905, 342.711 222.987, 280.453 191.292, 291.340 126.654, 328.688 "
fill = "none" stroke = "black"/>
</g>
<g>
<polygon points = "880.770, 729.632 938.528, 721.459 1000.000, 670.313 1000.000, 552.410 947.447, 537.891 853.798, 640.917 "
fill = "none" stroke = "black"/>
</g>
<g>
<polygon points = "55.456, 916.575 40.163, 912.673 0.000, 916.239 0.000, 1000.000 184.139, 1000.000 86.912, 928.143 "
fill = "none" stroke = "black"/>
</g>
<g>
<polygon points = "366.967, 860.988 290.890, 934.535 281.764, 1000.000 478.159, 1000.000 494.093, 950.552 478.122, 884.595 470.031, 860.529 442.430, 856.049 "
fill = "none" stroke = "black"/>
</g>
<g>
<polygon points = "152.130, 5.537 207.229, 64.816 289.665, 74.751 265.214, 0.000 151.436, 0.000 "
fill = "none" stroke = "black"/>
</g>
<g>
<polygon points = "894.709, 169.165 964.475, 144.993 909.468, 102.839 891.167, 90.135 860.150, 118.867 "
fill = "none" stroke = "black"/>
</g>
<g>
<polygon points = "167.559, 494.696 237.143, 549.829 246.566, 556.417 294.574, 552.150 312.677, 484.764 214.249, 407.813 "
fill = "none" stroke = "black"/>
</g>
<g>
<polygon points = "361.973, 201.904 348.067, 271.571 432.980, 300.245 435.436, 298.335 435.316, 234.703 433.806, 232.512 "
fill = "none" stroke = "black"/>
</g>
<g>
<polygon points = "550.060, 293.282 509.183, 284.944 436.051, 298.420 563.709, 413.874 603.116, 379.528 575.485, 310.873 "
fill = "none" stroke = "black"/>
</g>
<g>
<polygon points = "494.093, 950.552 478.159, 1000.000 636.410, 1000.000 608.428, 927.780 546.560, 935.202 "
fill = "none" stroke = "black"/>
</g>
<g>
<polygon points = "430.708, 0.000 388.163, 0.000 369.107, 42.073 409.199, 79.283 476.660, 62.795 "
fill = "none" stroke = "black"/>
</g>
<g>
<polygon points = "857.808, 361.848 1000.000, 334.274 1000.000, 215.614 875.036, 238.119 867.021, 242.309 856.699, 359.642 "
fill = "none" stroke = "black"/>
</g>
<g>
<polygon points = "326.628, 275.550 312.343, 251.051 225.766, 229.361 222.987, 280.453 273.905, 342.711 "
fill = "none" stroke = "black"/>
</g>
<g>
<polygon points = "701.988, 692.078 646.287, 607.080 604.370, 606.488 572.230, 649.477 660.245, 690.951 702.317, 702.700 703.082, 700.301 "
fill = "none" stroke = "black"/>
</g>
<g>
<polygon points = "708.836, 743.795 648.077, 779.836 634.750, 866.815 785.841, 867.895 786.397, 866.811 798.258, 807.632 797.975, 805.627 "
fill = "none" stroke = "black"/>
</g>
<g>
<polygon points = "424.772, 98.164 410.710, 147.117 428.009, 158.154 476.078, 141.189 500.809, 97.221 "
fill = "none" stroke = "black"/>
</g>
<g>
<polygon points = "880.770, 729.632 853.798, 640.917 798.673, 631.461 790.395, 648.615 845.050, 751.810 "
fill = "none" stroke = "black"/>
</g>
<g>
<polygon points = "207.229, 64.816 191.546, 134.127 196.170, 164.667 219.792, 188.963 314.252, 139.766 314.746, 93.862 289.665, 74.751 "
fill = "none" stroke = "black"/>
</g>
<g>
<polygon points = "432.980, 300.245 348.067, 271.571 326.628, 275.550 273.905, 342.711 276.325, 359.035 319.605, 382.709 397.777, 377.620 "
fill = "none" stroke = "black"/>
</g>
<g>
<polygon points = "836.635, 471.559 947.447, 537.891 1000.000, 552.410 1000.000, 334.274 857.808, 361.848 "
fill = "none" stroke = "black"/>
</g>
<g>
<polygon points = "732.042, 146.715 626.446, 92.369 605.084, 182.985 705.962, 201.180 "
fill = "none" stroke = "black"/>
</g>
<g>
<polygon points = "504.712, 93.846 476.660, 62.795 409.199, 79.283 424.772, 98.164 500.809, 97.221 "
fill = "none" stroke = "black"/>
</g>
<g>
<polygon points = "361.973, 201.904 433.806, 232.512 428.009, 158.154 410.710, 147.117 320.094, 145.002 320.108, 145.038 "
fill = "none" stroke = "black"/>
</g>
<g>
<polygon points = "742.102, 25.670 623.741, 83.672 626.446, 92.369 732.042, 146.715 749.023, 131.794 "
fill = "none" stroke = "black"/>
</g>
<g>
<polygon points = "507.793, 679.535 494.983, 674.814 442.430, 856.049 470.031, 860.529 525.446, 841.951 540.463, 794.763 508.480, 680.649 "
fill = "none" stroke = "black"/>
</g>
<g>
<polygon points = "909.468, 102.839 967.938, 73.444 936.269, 0.000 895.210, 0.000 891.167, 90.135 "
fill = "none" stroke = "black"/>
</g>
<g>
<polygon points = "82.607, 114.592 65.229, 134.424 62.438, 143.958 84.286, 149.492 196.170, 164.667 191.546, 134.127 120.971, 73.956 "
fill = "none" stroke = "black"/>
</g>
<g>
<polygon points = "646.287, 607.080 739.271, 524.394 743.043, 517.916 622.028, 522.540 600.690, 586.331 604.370, 606.488 "
fill = "none" stroke = "black"/>
</g>
<g>
<polygon points = "588.498, 724.288 645.900, 779.280 648.077, 779.836 708.836, 743.795 702.317, 702.700 660.245, 690.951 "
fill = "none" stroke = "black"/>
</g>
<g>
<polygon points = "708.836, 743.795 797.975, 805.627 845.050, 751.810 790.395, 648.615 703.082, 700.301 702.317, 702.700 "
fill = "none" stroke = "black"/>
</g>
<g>
<polygon points = "424.252, 634.168 373.448, 699.996 366.967, 860.988 442.430, 856.049 494.983, 674.814 "
fill = "none" stroke = "black"/>
</g>
<g>
<polygon points = "235.529, 758.647 255.321, 710.655 213.409, 657.990 90.902, 683.882 94.777, 703.776 102.905, 717.134 "
fill = "none" stroke = "black"/>
</g>
<g>
<polygon points = "600.690, 586.331 475.134, 506.329 419.895, 615.588 424.252, 634.168 494.983, 674.814 507.793, 679.535 572.230, 649.477 604.370, 606.488 "
fill = "none" stroke = "black"/>
</g>
<g>
<polygon points = "152.130, 5.537 120.971, 73.956 191.546, 134.127 207.229, 64.816 "
fill = "none" stroke = "black"/>
</g>
<g>
<polygon points = "86.912, 928.143 153.366, 825.694 143.814, 819.573 55.456, 916.575 "
fill = "none" stroke = "black"/>
</g>
<g>
<polygon points = "435.316, 234.703 435.436, 298.335 436.051, 298.420 509.183, 284.944 513.096, 241.444 500.408, 199.366 497.809, 198.788 "
fill = "none" stroke = "black"/>
</g>
<g>
<polygon points = "1000.000, 0.000 936.269, 0.000 967.938, 73.444 1000.000, 128.882 "
fill = "none" stroke = "black"/>
</g>
<g>
<polygon points = "701.988, 692.078 739.271, 524.394 646.287, 607.080 "
fill = "none" stroke = "black"/>
</g>
<g>
<polygon points = "762.403, 503.956 743.043, 517.916 739.271, 524.394 701.988, 692.078 703.082, 700.301 790.395, 648.615 798.673, 631.461 "
fill = "none" stroke = "black"/>
</g>
<g>
<polygon points = "290.890, 934.535 366.967, 860.988 373.448, 699.996 255.321, 710.655 235.529, 758.647 229.318, 852.555 "
fill = "none" stroke = "black"/>
</g>
<g>
<polygon points = "645.900, 779.280 588.498, 724.288 508.480, 680.649 540.463, 794.763 "
fill = "none" stroke = "black"/>
</g>
<g>
<polygon points = "191.292, 291.340 133.955, 239.375 94.342, 256.762 85.194, 325.116 126.654, 328.688 "
fill = "none" stroke = "black"/>
</g>
<g>
<polygon points = "152.593, 224.500 84.286, 149.492 62.438, 143.958 45.282, 160.018 94.342, 256.762 133.955, 239.375 "
fill = "none" stroke = "black"/>
</g>
<g>
<polygon points = "152.593, 224.500 133.955, 239.375 191.292, 291.340 222.987, 280.453 225.766, 229.361 218.626, 194.480 "
fill = "none" stroke = "black"/>
</g>
<g>
<polygon points = "63.960, 0.000 82.607, 114.592 120.971, 73.956 152.130, 5.537 151.436, 0.000 "
fill = "none" stroke = "black"/>
</g>
<g>
<polygon points = "0.000, 368.642 0.000, 613.301 15.871, 615.364 154.515, 495.650 30.524, 366.334 "
fill = "none" stroke = "black"/>
</g>
<g>
<polygon points = "229.318, 852.555 235.529, 758.647 102.905, 717.134 134.614, 812.336 143.814, 819.573 153.366, 825.694 "
fill = "none" stroke = "black"/>
</g>
<g>
<polygon points = "718.461, 293.033 856.699, 359.642 867.021, 242.309 841.819, 222.975 719.216, 250.369 716.129, 268.418 "
fill = "none" stroke = "black"/>
</g>
<g>
<polygon points = "576.059, 0.000 574.733, 40.231 623.741, 83.672 742.102, 25.670 750.318, 0.000 "
fill = "none" stroke = "black"/>
</g>
<g>
<polygon points = "719.216, 250.369 705.962, 201.180 605.084, 182.985 602.739, 184.229 607.423, 258.821 716.129, 268.418 "
fill = "none" stroke = "black"/>
</g>
<g>
<polygon points = "134.614, 812.336 86.525, 828.588 40.163, 912.673 55.456, 916.575 143.814, 819.573 "
fill = "none" stroke = "black"/>
</g>
<g>
<polygon points = "546.560, 935.202 478.122, 884.595 494.093, 950.552 "
fill = "none" stroke = "black"/>
</g>
<g>
<polygon points = "102.905, 717.134 94.777, 703.776 23.108, 804.266 86.525, 828.588 134.614, 812.336 "
fill = "none" stroke = "black"/>
</g>
<g>
<polygon points = "428.009, 158.154 433.806, 232.512 435.316, 234.703 497.809, 198.788 476.078, 141.189 "
fill = "none" stroke = "black"/>
</g>
<g>
<polygon points = "569.969, 183.248 565.703, 186.332 552.662, 228.706 550.060, 293.282 575.485, 310.873 607.423, 258.821 602.739, 184.229 "
fill = "none" stroke = "black"/>
</g>
<g>
<polygon points = "23.108, 804.266 0.000, 813.945 0.000, 916.239 40.163, 912.673 86.525, 828.588 "
fill = "none" stroke = "black"/>
</g>
<g>
<polygon points = "1000.000, 870.823 1000.000, 788.666 955.286, 792.098 960.217, 856.370 970.264, 870.389 "
fill = "none" stroke = "black"/>
</g>
<g>
<polygon points = "970.264, 870.389 960.217, 856.370 798.258, 807.632 786.397, 866.811 936.353, 921.601 "
fill = "none" stroke = "black"/>
</g>
<g>
<polygon points = "970.264, 870.389 936.353, 921.601 925.096, 1000.000 1000.000, 1000.000 1000.000, 870.823 "
fill = "none" stroke = "black"/>
</g>
<g>
<polygon points = "766.142, 1000.000 925.096, 1000.000 936.353, 921.601 786.397, 866.811 785.841, 867.895 "
fill = "none" stroke = "black"/>
</g>
<g>
<polygon points = "65.229, 134.424 11.418, 0.000 0.000, 0.000 0.000, 168.094 45.282, 160.018 62.438, 143.958 "
fill = "none" stroke = "black"/>
</g>
<g>
<polygon points = "540.463, 794.763 525.446, 841.951 606.090, 900.006 634.750, 866.815 648.077, 779.836 645.900, 779.280 "
fill = "none" stroke = "black"/>
</g>
<g>
<polygon points = "246.566, 556.417 237.143, 549.829 71.848, 665.080 90.902, 683.882 213.409, 657.990 "
fill = "none" stroke = "black"/>
</g>
<g>
<polygon points = "964.475, 144.993 894.709, 169.165 875.036, 238.119 1000.000, 215.614 1000.000, 159.425 "
fill = "none" stroke = "black"/>
</g>
<g>
<polygon points = "447.485, 454.605 397.777, 377.620 319.605, 382.709 317.948, 473.461 "
fill = "none" stroke = "black"/>
</g>
<g>
<polygon points = "600.690, 586.331 622.028, 522.540 537.491, 454.023 480.631, 486.931 475.134, 506.329 "
fill = "none" stroke = "black"/>
</g>
<g>
<polygon points = "634.750, 866.815 606.090, 900.006 608.428, 927.780 636.410, 1000.000 766.142, 1000.000 785.841, 867.895 "
fill = "none" stroke = "black"/>
</g>
<g>
<polygon points = "509.183, 284.944 550.060, 293.282 552.662, 228.706 513.096, 241.444 "
fill = "none" stroke = "black"/>
</g>
<g>
<polygon points = "265.214, 0.000 289.665, 74.751 314.746, 93.862 369.107, 42.073 388.163, 0.000 "
fill = "none" stroke = "black"/>
</g>
<g>
<polygon points = "626.446, 92.369 623.741, 83.672 574.733, 40.231 515.297, 92.313 569.969, 183.248 602.739, 184.229 605.084, 182.985 "
fill = "none" stroke = "black"/>
</g>
<g>
<polygon points = "836.635, 471.559 857.808, 361.848 856.699, 359.642 718.461, 293.033 650.619, 379.075 765.111, 499.732 "
fill = "none" stroke = "black"/>
</g>
<g>
<polygon points = "45.282, 160.018 0.000, 168.094 0.000, 368.642 30.524, 366.334 85.194, 325.116 94.342, 256.762 "
fill = "none" stroke = "black"/>
</g>
<g>
<polygon points = "801.119, 0.000 833.516, 130.169 860.150, 118.867 891.167, 90.135 895.210, 0.000 "
fill = "none" stroke = "black"/>
</g>
<g>
<polygon points = "894.709, 169.165 860.150, 118.867 833.516, 130.169 813.626, 144.986 841.819, 222.975 867.021, 242.309 875.036, 238.119 "
fill = "none" stroke = "black"/>
</g>
<g>
<circle cx = "840.188" cy = "605.617" r = "3" />
<circle cx = "783.099" cy = "201.560" r = "3" />
<circle cx = "911.647" cy = "802.449" r = "3" />
<circle cx = "335.223" cy = "231.770" r = "3" />
<circle cx = "277.775" cy = "446.030" r = "3" />
<circle cx = "477.397" cy = "371.129" r = "3" />
<circle cx = "364.784" cy = "486.599" r = "3" />
<circle cx = "952.230" cy = "83.805" r = "3" />
<circle cx = "635.712" cy = "282.703" r = "3" />
<circle cx = "141.603" cy = "393.031" r = "3" />
<circle cx = "16.301" cy = "757.113" r = "3" />
<circle cx = "137.232" cy = "195.823" r = "3" />
<circle cx = "156.679" cy = "599.056" r = "3" />
<circle cx = "129.790" cy = "891.191" r = "3" />
<circle cx = "998.925" cy = "781.743" r = "3" />
<circle cx = "512.932" cy = "160.888" r = "3" />
<circle cx = "612.640" cy = "703.968" r = "3" />
<circle cx = "637.552" cy = "475.713" r = "3" />
<circle cx = "493.583" cy = "27.225" r = "3" />
<circle cx = "292.517" cy = "228.642" r = "3" />
<circle cx = "526.745" cy = "230.086" r = "3" />
<circle cx = "400.229" cy = "108.471" r = "3" />
<circle cx = "283.315" cy = "647.542" r = "3" />
<circle cx = "807.725" cy = "80.974" r = "3" />
<circle cx = "69.755" cy = "50.673" r = "3" />
<circle cx = "525.995" cy = "913.944" r = "3" />
<circle cx = "192.214" cy = "336.773" r = "3" />
<circle cx = "890.233" cy = "651.107" r = "3" />
<circle cx = "64.171" cy = "979.977" r = "3" />
<circle cx = "457.702" cy = "936.904" r = "3" />
<circle cx = "238.280" cy = "29.366" r = "3" />
<circle cx = "902.208" cy = "149.080" r = "3" />
<circle cx = "266.666" cy = "460.240" r = "3" />
<circle cx = "375.207" cy = "239.751" r = "3" />
<circle cx = "512.535" cy = "332.276" r = "3" />
<circle cx = "531.606" cy = "960.720" r = "3" />
<circle cx = "437.638" cy = "68.165" r = "3" />
<circle cx = "930.810" cy = "279.048" r = "3" />
<circle cx = "284.293" cy = "261.466" r = "3" />
<circle cx = "639.979" cy = "645.951" r = "3" />
<circle cx = "687.861" cy = "834.026" r = "3" />
<circle cx = "440.105" cy = "119.925" r = "3" />
<circle cx = "829.201" cy = "669.663" r = "3" />
<circle cx = "228.968" cy = "106.628" r = "3" />
<circle cx = "350.360" cy = "313.330" r = "3" />
<circle cx = "956.468" cy = "411.360" r = "3" />
<circle cx = "657.304" cy = "141.324" r = "3" />
<circle cx = "439.560" cy = "76.030" r = "3" />
<circle cx = "398.437" cy = "185.233" r = "3" />
<circle cx = "684.219" cy = "89.028" r = "3" />
<circle cx = "482.491" cy = "784.175" r = "3" />
<circle cx = "950.252" cy = "79.872" r = "3" />
<circle cx = "147.660" cy = "118.938" r = "3" />
<circle cx = "641.081" cy = "568.047" r = "3" />
<circle cx = "619.596" cy = "718.941" r = "3" />
<circle cx = "786.002" cy = "692.542" r = "3" />
<circle cx = "447.034" cy = "773.893" r = "3" />
<circle cx = "187.533" cy = "723.765" r = "3" />
<circle cx = "556.444" cy = "583.499" r = "3" />
<circle cx = "169.607" cy = "93.196" r = "3" />
<circle cx = "103.171" cy = "873.925" r = "3" />
<circle cx = "495.444" cy = "239.525" r = "3" />
<circle cx = "984.752" cy = "64.996" r = "3" />
<circle cx = "684.445" cy = "616.812" r = "3" />
<circle cx = "749.771" cy = "631.336" r = "3" />
<circle cx = "294.160" cy = "767.738" r = "3" />
<circle cx = "584.489" cy = "755.587" r = "3" />
<circle cx = "152.390" cy = "267.851" r = "3" />
<circle cx = "125.475" cy = "206.530" r = "3" />
<circle cx = "164.102" cy = "254.929" r = "3" />
<circle cx = "74.530" cy = "49.896" r = "3" />
<circle cx = "52.529" cy = "478.437" r = "3" />
<circle cx = "176.211" cy = "759.938" r = "3" />
<circle cx = "797.798" cy = "267.346" r = "3" />
<circle cx = "656.564" cy = "32.595" r = "3" />
<circle cx = "639.458" cy = "240.265" r = "3" />
<circle cx = "93.480" cy = "865.098" r = "3" />
<circle cx = "520.210" cy = "921.768" r = "3" />
<circle cx = "69.906" cy = "795.345" r = "3" />
<circle cx = "461.420" cy = "180.323" r = "3" />
<circle cx = "573.319" cy = "244.419" r = "3" />
<circle cx = "51.939" cy = "842.193" r = "3" />
<circle cx = "999.994" cy = "795.671" r = "3" />
<circle cx = "889.956" cy = "874.532" r = "3" />
<circle cx = "997.799" cy = "945.942" r = "3" />
<circle cx = "870.540" cy = "927.671" r = "3" />
<circle cx = "4.162" cy = "76.931" r = "3" />
<circle cx = "593.892" cy = "819.628" r = "3" />
<circle cx = "163.131" cy = "608.310" r = "3" />
<circle cx = "913.027" cy = "180.305" r = "3" />
<circle cx = "359.095" cy = "447.515" r = "3" />
<circle cx = "579.430" cy = "547.424" r = "3" />
<circle cx = "687.387" cy = "900.360" r = "3" />
<circle cx = "530.808" cy = "242.706" r = "3" />
<circle cx = "304.295" cy = "7.772" r = "3" />
<circle cx = "576.971" cy = "122.386" r = "3" />
<circle cx = "747.809" cy = "371.090" r = "3" />
<circle cx = "35.421" cy = "252.197" r = "3" />
<circle cx = "833.239" cy = "74.623" r = "3" />
<circle cx = "873.271" cy = "168.962" r = "3" />
</g>
</svg>
